<svg width="47" height="65" viewBox="0 0 47 65" fill="none" xmlns="http://www.w3.org/2000/svg">
<path d="M46.2908 65H0V60.9316H46.2908V65ZM0.856887 64.1445H45.4355V61.7914H0.856887V64.1445Z" fill="#F5C34B"/>
<path d="M42.3661 58.5556H3.9248V54.4902H42.3661V58.5556ZM4.77577 57.7002H41.5047V55.3456H4.77577V57.7002Z" fill="#F5C34B"/>
<path d="M44.2712 61.7631H2.02051V57.6992H44.2712V61.7631ZM2.87595 60.9077H43.4157V58.5546H2.8774L2.87595 60.9077Z" fill="#F5C34B"/>
<path d="M11.6989 20.4004H3.9248V19.5449H11.6989V20.4004Z" fill="#F5C34B"/>
<path d="M42.3659 20.4004H34.5918V19.5449H42.3659V20.4004Z" fill="#F5C34B"/>
<path d="M42.3659 22.3965H34.5918V23.2519H42.3659V22.3965Z" fill="#F5C34B"/>
<path d="M42.3659 51.6367H34.5918V52.4921H42.3659V51.6367Z" fill="#F5C34B"/>
<path d="M41.3667 52.4954H35.5195V22.3965H41.3667V52.4954ZM36.3748 51.6385H40.5113V23.2519H36.3748V51.6385Z" fill="#F5C34B"/>
<path d="M36.3748 27.6851H35.5195C35.5195 26.5367 36.9684 25.5762 38.3698 24.6483C39.3244 24.0178 40.5113 23.2304 40.5113 22.7539H41.3667C41.3667 23.6907 40.1975 24.4648 38.8419 25.3631C37.7423 26.0897 36.3748 26.9969 36.3748 27.6851Z" fill="#F5C34B"/>
<path d="M36.3748 32.5615H35.5195C35.5195 31.413 36.9684 30.4526 38.3698 29.5246C39.3244 28.8927 40.5113 28.1069 40.5113 27.6289H41.3667C41.3667 28.5672 40.1975 29.3412 38.8419 30.238C37.7423 30.9661 36.3748 31.8718 36.3748 32.5615Z" fill="#F5C34B"/>
<path d="M36.3748 37.4385H35.5195C35.5195 36.2886 36.9684 35.3296 38.3698 34.4017C39.3244 33.7697 40.5113 32.9839 40.5113 32.5059H41.3667C41.3667 33.4427 40.1975 34.2181 38.8419 35.115C37.7423 35.8431 36.3748 36.7488 36.3748 37.4385Z" fill="#F5C34B"/>
<path d="M36.3748 42.312H35.5195C35.5195 41.1635 36.9684 40.2031 38.3698 39.2751C39.3244 38.6447 40.5113 37.8574 40.5113 37.3809H41.3667C41.3667 38.3177 40.1975 39.0916 38.8419 39.99C37.7423 40.7166 36.3748 41.6238 36.3748 42.312Z" fill="#F5C34B"/>
<path d="M36.3748 47.1885H35.5195C35.5195 46.0401 36.9684 45.0796 38.3698 44.1517C39.3244 43.5197 40.5113 42.7339 40.5113 42.2559H41.3667C41.3667 43.1941 40.1975 43.9681 38.8419 44.865C37.7423 45.5931 36.3748 46.4988 36.3748 47.1885Z" fill="#F5C34B"/>
<path d="M36.3748 52.0654H35.5195C35.5195 50.9155 36.9684 49.9565 38.3698 49.0286C39.3244 48.3967 40.5113 47.6108 40.5113 47.1328H41.3667C41.3667 48.0696 40.1975 48.8452 38.8419 49.742C37.7423 50.4701 36.3748 51.3758 36.3748 52.0654Z" fill="#F5C34B"/>
<path d="M11.6989 22.3965H3.9248V23.2519H11.6989V22.3965Z" fill="#F5C34B"/>
<path d="M11.6989 51.6367H3.9248V52.4921H11.6989V51.6367Z" fill="#F5C34B"/>
<path d="M4.92383 22.3965H10.7725V52.4954H4.92383V22.3965ZM9.91557 23.2519H5.77927V51.6355H9.91557V23.2519Z" fill="#F5C34B"/>
<path d="M9.91557 27.6851H10.7725C10.7725 26.5367 9.32219 25.5762 7.92069 24.6483C6.96762 24.0178 5.77927 23.2304 5.77927 22.7539H4.92383C4.92383 23.6907 6.09439 24.4648 7.44853 25.3631C8.54812 26.0897 9.91557 26.9969 9.91557 27.6851Z" fill="#F5C34B"/>
<path d="M9.91557 32.5615H10.7725C10.7725 31.413 9.32219 30.4526 7.92069 29.5246C6.96762 28.8927 5.77927 28.1069 5.77927 27.6289H4.92383C4.92383 28.5672 6.09439 29.3412 7.44853 30.238C8.54812 30.9661 9.91557 31.8718 9.91557 32.5615Z" fill="#F5C34B"/>
<path d="M9.91557 37.4385H10.7725C10.7725 36.2886 9.32219 35.3296 7.92069 34.4017C6.96762 33.7697 5.77927 32.9839 5.77927 32.5059H4.92383C4.92383 33.4427 6.09439 34.2181 7.44853 35.115C8.54812 35.8431 9.91557 36.7488 9.91557 37.4385Z" fill="#F5C34B"/>
<path d="M9.91557 42.312H10.7725C10.7725 41.1635 9.32219 40.2031 7.92069 39.2751C6.96762 38.6447 5.77927 37.8574 5.77927 37.3809H4.92383C4.92383 38.3177 6.09439 39.0916 7.44853 39.99C8.54812 40.7166 9.91557 41.6238 9.91557 42.312Z" fill="#F5C34B"/>
<path d="M9.91557 47.1885H10.7725C10.7725 46.0401 9.32219 45.0796 7.92069 44.1517C6.96762 43.5197 5.77927 42.7339 5.77927 42.2559H4.92383C4.92383 43.1941 6.09439 43.9681 7.44853 44.865C8.54812 45.5931 9.91557 46.4988 9.91557 47.1885Z" fill="#F5C34B"/>
<path d="M9.91557 52.0654H10.7725C10.7725 50.9155 9.32219 49.9565 7.92069 49.0286C6.96762 48.3967 5.77927 47.6108 5.77927 47.1328H4.92383C4.92383 48.0696 6.09439 48.8452 7.44853 49.742C8.54812 50.4701 9.91557 51.3758 9.91557 52.0654Z" fill="#F5C34B"/>
<path d="M23.1769 13.8262L13.1475 30.5213L23.1133 36.4025L33.1427 30.5228L23.1769 13.8262ZM31.4882 29.4202L23.572 25.8447L23.6002 16.2044L31.4882 29.4202ZM22.7151 25.8684L14.8065 29.4276L22.7433 16.2162L22.7151 25.8684ZM14.6658 30.4295L22.7137 26.8082L22.6886 35.1639L14.6658 30.4295ZM23.5691 26.7889L31.6244 30.4266L23.544 35.1624L23.5691 26.7889Z" fill="#F5C34B"/>
<path d="M23.1155 37.9356L13.1318 31.8145L23.114 46.8981L33.1909 31.8027L23.1155 37.9356ZM23.5742 38.6592L30.3301 34.5436L23.5742 44.6663V38.6592ZM22.7189 38.6962V44.7492L15.9762 34.5628L22.7189 38.6962Z" fill="#F5C34B"/>
<path d="M23.1521 9.13418C21.9412 9.133 20.7802 8.65147 19.924 7.79523C19.0677 6.93899 18.5861 5.77803 18.585 4.56713C18.5861 3.35622 19.0677 2.19526 19.924 1.33902C20.7802 0.482784 21.9412 0.00117544 23.1521 0C24.3629 0.00156634 25.5236 0.483302 26.3798 1.33946C27.2359 2.19561 27.7176 3.35634 27.7192 4.56713C27.7176 5.77791 27.2359 6.93864 26.3798 7.7948C25.5236 8.65095 24.3629 9.13261 23.1521 9.13418ZM23.1521 0.819889C22.1586 0.821064 21.2062 1.21623 20.5037 1.91871C19.8012 2.62119 19.406 3.57367 19.4048 4.56713C19.406 5.56058 19.8012 6.51299 20.5037 7.21547C21.2062 7.91795 22.1586 8.31312 23.1521 8.31429C24.1454 8.31312 25.0977 7.91792 25.7999 7.2154C26.5022 6.51288 26.897 5.56045 26.8977 4.56713C26.8958 3.57458 26.5005 2.62324 25.7983 1.92167C25.0962 1.22011 24.1446 0.825542 23.1521 0.824369V0.819889Z" fill="#F5C34B"/>
<path d="M23.1527 7.37961C22.4069 7.37961 21.6918 7.08336 21.1645 6.55603C20.6371 6.0287 20.3408 5.31349 20.3408 4.56773C20.3408 3.82198 20.6371 3.10676 21.1645 2.57943C21.6918 2.05211 22.4069 1.75586 23.1527 1.75586C23.8984 1.75586 24.6136 2.05211 25.1409 2.57943C25.6682 3.10676 25.9646 3.82198 25.9646 4.56773C25.9646 5.31349 25.6682 6.0287 25.1409 6.55603C24.6136 7.08336 23.8984 7.37961 23.1527 7.37961ZM23.1527 2.64382C22.6424 2.64382 22.1531 2.84652 21.7923 3.20732C21.4315 3.56813 21.2288 4.05748 21.2288 4.56773C21.2288 5.07799 21.4315 5.56734 21.7923 5.92814C22.1531 6.28895 22.6424 6.49165 23.1527 6.49165C23.6629 6.49165 24.1523 6.28895 24.5131 5.92814C24.8739 5.56734 25.0766 5.07799 25.0766 4.56773C25.0758 4.05799 24.8728 3.56936 24.5121 3.2092C24.1514 2.84904 23.6624 2.64678 23.1527 2.64678V2.64382Z" fill="#F5C34B"/>
<path d="M23.1458 5.36383C23.5839 5.36383 23.939 5.00868 23.939 4.57059C23.939 4.13249 23.5839 3.77734 23.1458 3.77734C22.7077 3.77734 22.3525 4.13249 22.3525 4.57059C22.3525 5.00868 22.7077 5.36383 23.1458 5.36383Z" fill="#F5C34B"/>
<path d="M36.0276 7.0873C33.5635 4.61078 30.4354 2.90027 27.0207 2.16211C27.2139 2.47184 27.3689 2.80373 27.4824 3.15066C30.4897 3.92228 33.2329 5.49145 35.4223 7.69256C38.5851 10.8371 40.4062 15.085 40.503 19.5439H36.5797C36.4865 16.7198 35.5074 13.9967 33.781 11.7598C32.0546 9.52291 29.6684 7.8857 26.9601 7.07992C26.7881 7.34076 26.5897 7.58321 26.3682 7.80356C29.0507 8.51811 31.4224 10.098 33.1154 12.2981C34.8085 14.4982 35.7281 17.1955 35.7316 19.9716V20.3993H41.3658V19.9716C41.3721 17.5777 40.9036 15.2063 39.9873 12.9947C39.071 10.7832 37.7251 8.77526 36.0276 7.0873Z" fill="#F5C34B"/>
<path d="M19.333 7.07992C16.6247 7.8857 14.2384 9.52291 12.512 11.7598C10.7856 13.9967 9.80661 16.7198 9.71341 19.5439H5.79C5.88742 15.0851 7.70839 10.8375 10.8706 7.69256C13.0603 5.49175 15.8034 3.92262 18.8105 3.15066C18.9246 2.80368 19.0801 2.47179 19.2737 2.16211C15.8586 2.90025 12.73 4.61074 10.2654 7.0873C8.56813 8.77539 7.22257 10.7834 6.30653 12.995C5.3905 15.2065 4.92225 17.5778 4.92878 19.9716V20.3993H10.5628V19.9716C10.5667 17.1954 11.4867 14.4981 13.18 12.298C14.8732 10.0979 17.2451 8.51806 19.9278 7.80356C19.7052 7.58343 19.5059 7.34097 19.333 7.07992Z" fill="#F5C34B"/>
<path d="M19.7779 2.92969C19.4524 2.99382 19.1282 3.06728 18.8056 3.15016C18.6553 3.60875 18.5789 4.08833 18.5791 4.57091C18.5777 5.463 18.8399 6.33568 19.3325 7.07943C19.6117 6.99655 19.8943 6.92255 20.1804 6.85744C19.6738 6.20289 19.3989 5.3986 19.399 4.57091C19.3982 4.00206 19.5278 3.44061 19.7779 2.92969Z" fill="#F5C34B"/>
<path d="M23.1518 0.823795C23.6479 0.824219 24.1389 0.92336 24.5962 1.11545C25.0536 1.30753 25.4681 1.58873 25.8157 1.94263C26.2227 2.00183 26.6267 2.07582 27.0262 2.16166C26.6168 1.50197 26.0459 0.957617 25.3674 0.580054C24.6889 0.202491 23.9254 0.00417981 23.1489 0.00390625C22.3725 0.00403982 21.6088 0.202261 20.9303 0.579837C20.2518 0.957413 19.6809 1.50187 19.2715 2.16166C19.6711 2.07582 20.075 2.00183 20.482 1.94263C20.8302 1.58782 21.2457 1.30605 21.7041 1.11393C22.1626 0.921805 22.6547 0.823185 23.1518 0.823795Z" fill="#F5C34B"/>
<path d="M23.1519 8.32004C22.3517 8.31824 21.5733 8.05878 20.932 7.58008C20.5926 7.64026 20.2592 7.71327 19.9316 7.79911C20.3551 8.22196 20.8576 8.55724 21.4107 8.78578C21.9638 9.01432 22.5564 9.13164 23.1548 9.13105C23.7533 9.13164 24.346 9.01432 24.8991 8.78578C25.4522 8.55724 25.9547 8.22196 26.3782 7.79911C26.0496 7.71327 25.7152 7.64076 25.3778 7.58008C24.7349 8.05999 23.9542 8.31952 23.1519 8.32004Z" fill="#F5C34B"/>
<path d="M26.8917 4.57091C26.8925 5.39873 26.6177 6.20327 26.1104 6.85744C26.3975 6.92255 26.6807 6.99655 26.9599 7.07943C27.4518 6.33537 27.7138 5.4629 27.7131 4.57091C27.7129 4.08825 27.6359 3.60868 27.4852 3.15016C27.1646 3.06728 26.8404 2.99382 26.5129 2.92969C26.7629 3.44061 26.8925 4.00206 26.8917 4.57091Z" fill="#F5C34B"/>
</svg>
