<svg width="739" height="134" viewBox="0 0 739 134" fill="none" xmlns="http://www.w3.org/2000/svg">
<path fill-rule="evenodd" clip-rule="evenodd" d="M619.944 40.8594L645.396 93.5649H661.392C659.318 97.1325 657.294 99.7586 655.319 101.443C653.443 103.128 651.271 104.218 648.803 104.714C646.433 105.209 643.125 105.457 638.879 105.457C633.054 105.457 623.525 103.97 610.294 100.997V127.011C616.021 128.695 621.847 129.984 627.771 130.875C633.695 131.767 639.077 132.213 643.915 132.213C652.801 132.213 660.454 130.628 666.872 127.457C673.29 124.385 678.819 119.876 683.46 113.93C688.199 108.083 692.791 100.551 697.234 91.3352L739 4.3764H704.491L670.871 74.5381L637.432 4.44786L637.467 4.3764H637.398H602.957H602.889L602.923 4.44797L602.822 4.65856L619.944 40.8594ZM597.906 11.1503L567.531 74.5381L534.059 4.3764H499.55L542.057 93.5649H558.052C555.979 97.1325 553.955 99.7586 551.98 101.443C550.104 103.128 547.932 104.218 545.463 104.714C543.093 105.209 539.786 105.457 535.54 105.457C529.714 105.457 520.186 103.97 506.955 100.997V127.011C512.682 128.695 518.508 129.984 524.432 130.875C530.356 131.767 535.737 132.213 540.576 132.213C549.462 132.213 557.114 130.628 563.532 127.457C569.95 124.385 575.48 119.876 580.12 113.93C584.86 108.083 589.451 100.551 593.895 91.3352L615.024 47.3435L597.906 11.1503ZM352.937 6.54334C345.631 3.3722 337.781 1.78662 329.388 1.78662C320.699 1.78662 312.701 3.32264 305.395 6.39469C298.187 9.36765 292.46 14.1244 288.214 20.6649V4.75957H254.149V129.624H288.214V78.0428C292.46 84.5833 298.187 89.3896 305.395 92.4616C312.701 95.4346 320.699 96.9211 329.388 96.9211C337.781 96.9211 345.631 95.385 352.937 92.313C360.244 89.1419 366.218 84.0383 370.859 77.0023C375.598 69.8672 377.968 60.6511 377.968 49.3538C377.968 38.0566 375.598 28.89 370.859 21.854C366.218 14.719 360.244 9.61539 352.937 6.54334ZM335.609 63.9213C331.166 67.0925 324.402 68.678 315.318 68.678C306.234 68.678 299.421 67.0925 294.879 63.9213C290.436 60.7502 288.214 55.8943 288.214 49.3538C288.214 42.8133 290.436 37.9575 294.879 34.7864C299.421 31.6152 306.234 30.0297 315.318 30.0297C324.402 30.0297 331.166 31.6152 335.609 34.7864C340.151 37.9575 342.422 42.8133 342.422 49.3538C342.422 55.8943 340.151 60.7502 335.609 63.9213ZM452.296 1.78662C464.935 1.78662 475.253 3.32264 483.251 6.39469C491.347 9.46674 497.371 14.4217 501.32 21.2595C505.368 27.9981 507.442 37.0161 507.541 48.3133V71.1307V93.9481H473.476V82.0563C466.07 86.6148 457.875 89.9842 448.89 92.1643C440.003 94.3445 431.364 95.4346 422.971 95.4346C410.431 95.4346 400.459 93.2049 393.053 88.7455C385.648 84.286 381.945 77.0518 381.945 67.0429C381.945 55.9439 386.833 48.1151 396.608 43.5566C406.383 38.899 418.528 36.5702 433.042 36.5702C445.582 36.5702 459.06 38.0566 473.476 41.0296C473.081 35.2819 470.514 31.2684 465.774 28.9891C461.133 26.7099 454.518 25.5702 445.928 25.5702C438.127 25.5702 430.179 26.1648 422.082 27.354C414.085 28.4441 404.704 30.2279 393.942 32.7053L389.202 9.36765C411.813 4.31363 432.845 1.78662 452.296 1.78662ZM434.671 71.651C442.768 71.651 455.703 70.1645 473.476 67.1916V60.3538C459.652 58.3718 447.853 57.3808 438.078 57.3808C430.574 57.3808 425.242 57.9259 422.082 59.0159C419.021 60.106 417.491 61.9889 417.491 64.6645C417.491 67.2411 418.775 69.0744 421.342 70.1645C423.909 71.1555 428.352 71.651 434.671 71.651Z" fill="#242424"/>
<path d="M150.129 26.6151C128.079 4.4733 107.575 -0.896263 98.522 0.115601V63.7144C107.575 62.7025 127.844 62.5366 150.129 89.625C172.413 116.713 187.991 113.014 197.044 112.002V48.4036C187.991 49.4154 172.179 48.7569 150.129 26.6151Z" fill="#242424"/>
<path d="M51.6067 47.8641C29.5565 25.7223 9.05262 20.3528 0 21.3646V84.9634C9.05262 83.9515 29.322 83.7857 51.6067 110.874C73.8914 137.962 89.4692 134.263 98.5218 133.251V69.6526C89.4692 70.6645 73.6568 70.0059 51.6067 47.8641Z" fill="#242424"/>
</svg>
